<svg width="90" height="118" viewBox="0 0 90 118" fill="none" xmlns="http://www.w3.org/2000/svg">
<path d="M78.152 94.0565L89.9998 97.9566L89.373 98.3883L88.0499 99.2848L86.3418 100.426L84.5736 101.591L83.1156 102.539L81.6191 103.503L80.0841 104.481L78.5105 105.474L76.8984 106.482L75.2477 107.505L73.5585 108.542L71.8308 109.595L70.0645 110.662L68.2597 111.744L66.4163 112.841L64.5344 113.953L61.6393 115.649L59.6611 116.798L57.7063 117.926L57.7069 117.962L57.6758 117.944L57.6442 117.962V117.926L57.3193 117.738V106.237L57.6498 106.428V106.458L57.6758 106.443L57.7013 106.458L57.7008 106.428L59.3034 105.504L60.9253 104.562L63.2989 103.171L64.8418 102.26L66.3531 101.36L67.8328 100.473L69.2809 99.598L70.6974 98.7351L72.0823 97.8844L73.4356 97.0459L74.7573 96.2196L76.0475 95.4054L77.306 94.6034L78.152 94.0565ZM57.7069 0L57.7063 0.0250827L59.4188 0.720557L61.9235 1.74532L64.2507 2.70701L66.4129 3.61039L67.7687 4.18258L69.6834 4.99931L71.4663 5.77039L73.1299 6.50057L74.1788 6.96697L75.6711 7.63953L77.0774 8.28385L78.41 8.90468L79.6815 9.50677L80.9044 10.0949L82.091 10.6737L83.6384 11.4394L84.7891 12.0152L89.204 14.2452L82.7077 16.4807L82.2734 16.4818L82.2724 16.6303L77.3446 18.3266L75.7174 17.5397L74.675 17.046L73.5824 16.537L72.4294 16.0088L71.2059 15.4574L70.346 15.075L68.9821 14.4764L67.5204 13.8442L65.9506 13.1746L63.0663 11.9648L61.1583 11.1763L57.7008 9.76599L57.7013 9.74542L57.6758 9.75604L57.6498 9.74542V9.76599L57.3193 9.9005V0.156175L57.6442 0.0250827V0L57.6758 0.0129459L57.7069 0Z" fill="#777777"/>
<path d="M57.7071 0L57.705 0.0232601L57.6757 0.0129459V9.74542L57.6892 9.75078L57.676 9.75604L57.65 9.74542V9.76599L54.193 11.1763L52.285 11.9648L49.4007 13.1746L47.8309 13.8442L46.3692 14.4764L45.0053 15.075L44.1454 15.4574L42.9218 16.0088L41.7689 16.537L40.6763 17.046L39.6338 17.5397L38.6313 18.0218L37.6584 18.4964L36.3897 19.1242L35.4463 19.5962L30.4586 22.1154L28.5506 23.0693L26.441 24.1103L25.0588 24.7843L23.5767 25.4999L22.5281 26.0022L20.2721 27.0721L17.1229 28.5442L15.0396 29.5062L12.7986 30.532L10.3895 31.6255L10.5989 35.5439L10.784 39.3074L11.209 48.5935L11.4396 53.3427L11.5757 55.8351L11.7224 58.224L11.8171 59.6077L11.9527 61.3953L12.0626 62.693L12.1403 63.5377L12.2216 64.3661L12.307 65.1783L12.3966 65.9743L12.4908 66.7541L12.5896 67.5178L12.6934 68.2654L12.8025 68.9969L12.917 69.7124L13.0372 70.4118L13.1634 71.0953L13.2958 71.7629L13.4346 72.4146L13.5801 73.0504L13.7325 73.6704C14.2023 75.5139 15.9783 77.8611 19.0607 80.7121L19.5099 81.1228L20.1365 81.6811L20.7947 82.2516L21.4845 82.8342L22.2059 83.429L22.7677 83.8831L23.3472 84.3441L24.1476 84.9694L24.5597 85.2866L25.4075 85.9302L26.7384 86.9184L28.6235 88.2786L29.8659 89.1536L31.1576 90.0475L32.7729 91.1454L33.8893 91.8925L35.623 93.0361L36.8184 93.8137L38.0453 94.6034L39.3038 95.4054L40.5939 96.2196L41.9157 97.0459L43.269 97.8844L44.6539 98.7351L47.5185 100.473L48.9982 101.36L50.5095 102.26L52.0524 103.171L53.6269 104.095L56.0478 105.504L57.65 106.428V106.458L57.676 106.443L57.7015 106.458L57.701 106.428L58.8531 105.762L57.7065 106.458V117.926L64.2316 114.118L68.2599 111.744L66.4165 112.841L64.5347 113.953L61.6396 115.649L59.6613 116.798L57.7065 117.926L57.7071 117.962L57.676 117.944L57.6444 117.962V117.926L55.6902 116.798L52.7373 115.08L50.8168 113.953L48.935 112.841L47.0916 111.744L45.2868 110.662L43.5205 109.595L41.7928 108.542L40.1036 107.505L38.4529 106.482L36.8408 105.474L35.2672 104.481L33.7322 103.503L32.2357 102.539L30.7777 101.591L28.663 100.196L27.3014 99.2848L25.3312 97.9457L23.7556 96.8553L21.9444 95.5775L19.9409 94.1291L18.8491 93.3218L17.2836 92.1388L16.781 91.7519L15.8047 90.9892L14.4126 89.873L13.5327 89.1475L12.6914 88.4368L11.8886 87.741L11.1243 87.0601C7.02671 83.3558 4.6778 80.3259 4.07755 77.9703L3.89164 77.2141L3.71417 76.4385L3.54485 75.6437L3.38339 74.8294L3.22948 73.9957L3.08284 73.1426L2.94316 72.2699L2.81015 71.3777L2.6835 70.4659L2.56293 69.5344L2.44813 68.5833L2.33881 67.6124L2.23467 66.6217L2.13541 65.6113L2.04074 64.5809L1.90668 62.9981L1.74121 60.8178L1.62576 59.13L1.44686 56.2163L1.28084 53.1763L0.999603 47.3836L0.481224 36.0572L0.25542 31.4667L0 26.6875L2.93838 25.3537L5.67182 24.1025L8.2128 22.9291L9.80602 22.1878L12.0539 21.1336L14.8057 19.8286L17.8923 18.3431L19.5783 17.5211L22.1514 16.2514L24.4786 15.0879L30.5622 12.0152L31.7128 11.4394L33.2603 10.6737L34.4469 10.0949L35.6698 9.50677L36.9413 8.90468L38.2739 8.28385L39.6802 7.63953L41.1725 6.96697L42.2214 6.50057L43.885 5.77039L45.6678 4.99931L47.5826 4.18258L48.9384 3.61039L51.1005 2.70701L53.4277 1.74532L55.9325 0.720557L57.6444 0.0250827V0L57.6757 0.0129459L57.7071 0ZM88.8785 98.7225L88.0501 99.2848L86.3421 100.426L84.5738 101.591L83.1158 102.539L81.6193 103.503L80.0843 104.481L77.9987 105.794L81.0353 103.838L85.36 101.027L90 97.9848L88.8785 98.7225ZM78.1522 94.0565L90 97.9566L89.9734 97.9749L78.1369 94.111L77.0026 94.7949L78.1522 94.0565ZM57.8396 0.0797489L59.419 0.720557L61.9238 1.74532L64.251 2.70701L66.4131 3.61039L67.7689 4.18258L69.6837 4.99931L71.4665 5.77039L73.1301 6.50057L74.179 6.96697L75.6713 7.63953L77.0776 8.28385L78.4102 8.90468L79.6817 9.50677L80.9046 10.0949L82.0912 10.6737L83.6387 11.4394L84.7893 12.0152L89.2042 14.2452L82.7079 16.4807L82.6947 16.4798L89.1615 14.2466L85.6639 12.4737L84.0161 11.6499L80.9225 10.1277L78.7792 9.09576L77.4345 8.46002L76.1571 7.86606L74.3674 7.05348L73.2584 6.56399L70.6018 5.41693L66.8131 3.80903L61.5803 1.62422L57.8396 0.0797489Z" fill="#BCBCBC"/>
</svg>
