<?xml version="1.0" encoding="UTF-8"?>
<svg width="76px" height="130px" viewBox="0 0 76 130" version="1.1" xmlns="http://www.w3.org/2000/svg" xmlns:xlink="http://www.w3.org/1999/xlink">
    <title>ironclad logo</title>
    <defs>
        <path d="M31.7472858,0 L31.7469598,0.0151641784 L32.6890657,0.435625623 L34.0670426,1.055163 L35.3473407,1.63657149 L36.5368216,2.1827225 L37.2827432,2.52865366 L38.3361102,3.02242313 L39.3169577,3.48859222 L40.2321475,3.93003236 L40.8091859,4.21200546 L41.6301942,4.6186116 L42.4038425,5.00814589 L43.1369926,5.38347976 L43.836506,5.7474846 L44.5092445,6.10303184 L45.1620696,6.45299291 L46.0133867,6.91588097 L46.6464318,7.26397422 L48.018,8.024 L46.164853,8.72555093 L45.9145901,8.72608803 L45.913853,8.82055093 L43.071853,9.89455093 L42.7121664,9.70204287 L42.1340318,9.39649446 L41.5328875,9.08367779 L40.9028367,8.76112526 L40.2379826,8.42636922 L39.5324286,8.07694207 L39.0365362,7.83462144 L38.250045,7.45525882 L37.4071292,7.05464475 L36.5018919,6.63031162 L35.8608655,6.33302702 L34.8386554,5.8636785 L33.7383992,5.36403058 L32.5542003,4.83161565 L31.7445781,4.47028159 L31.7448582,4.45724988 L31.7301499,4.46397593 L31.7151874,4.45724988 L31.7151874,4.47028159 L30.9058454,4.83161565 L29.7216464,5.36403058 L28.6213903,5.8636785 L27.5991802,6.33302702 L26.9581537,6.63031162 L26.0529165,7.05464475 L25.2100007,7.45525882 L24.4235095,7.83462144 L23.9276171,8.07694207 L23.222063,8.42636922 L22.557209,8.76112526 L21.9271582,9.08367779 L21.3260138,9.39649446 L20.7478792,9.70204287 L20.1868576,10.0027907 L19.455257,10.4005851 L18.9112338,10.6997277 L16.0350401,12.2961651 L14.9347829,12.9006503 L13.7182632,13.5603455 L12.9211886,13.9874158 L12.0665348,14.4409422 L11.4618652,14.7592093 L10.1609027,15.437233 L9.09813086,15.9849329 L8.34488796,16.3700951 L7.14356315,16.9797099 L5.85124424,17.6297637 L4.46203446,18.3227244 L4.58279227,20.8058104 L4.6895478,23.190762 L4.93462739,29.075418 L5.06759054,32.0849998 L5.14608416,33.6644595 L5.23066265,35.1782649 L5.28524388,36.0551783 L5.36347565,37.1879532 L5.42685686,38.0102992 L5.47161609,38.5456023 L5.51854334,39.0705892 L5.56777912,39.5852822 L5.61946396,40.0897033 L5.67373837,40.5838747 L5.73074289,41.0678187 L5.79061803,41.5415573 L5.85350431,42.0051129 L5.91954226,42.4585075 L5.98887239,42.9017633 L6.06163523,43.3349025 L6.1379713,43.7579473 L6.21802112,44.1709199 L6.30192522,44.5738424 C6.33055124,44.7064773 6.35984306,44.8374409 6.38982411,44.966737 C6.66009426,46.1323019 7.68023828,47.6156557 9.45025616,49.4167984 L9.7213829,49.6893532 L10.0827212,50.0431353 L10.4622796,50.4046389 L10.6588913,50.5882863 L10.8600581,50.773864 L11.2760566,51.1508106 L11.6000124,51.4385878 L11.9342171,51.7307082 L12.3957658,52.1269585 L12.6333727,52.3279792 L13.1222515,52.7358117 L13.3735235,52.9426235 L13.8897325,53.3620382 L14.0216316,53.4680984 L14.1546695,53.5746411 L14.6982085,54.0056381 L14.9768106,54.2240321 L15.693244,54.7784625 L16.4381462,55.3449578 L17.3696078,56.0406776 L18.0133573,56.5141427 L18.3420646,56.7537708 L19.0131442,57.2388181 L19.7024438,57.7315869 L20.4099636,58.2320771 L21.1357034,58.7402889 L21.8796633,59.2562221 L22.6418433,59.7798768 L23.4222434,60.311253 L24.2208635,60.8503507 L25.0377037,61.3971699 L25.872764,61.9517105 L26.7260443,62.5139726 L27.5975448,63.0839562 L28.4872653,63.6616613 L29.3952059,64.2470878 L30.7912794,65.1397054 L31.7151874,65.7256515 L31.7151874,65.7444357 L31.7301499,65.7348998 L31.7448582,65.7444357 L31.7445781,65.7256515 L32.6687663,65.1397054 L33.604037,64.5426967 L34.9727804,63.6616613 L35.8625009,63.0839562 L36.7340013,62.5139726 L37.5872817,61.9517105 L38.422342,61.3971699 L39.2391822,60.8503507 L40.0378023,60.311253 L40.8182024,59.7798768 L41.5803823,59.2562221 L42.3243422,58.7402889 L43.0500821,58.2320771 L43.538853,57.8855509 L48.77,59.778 L48.440324,60.0243523 L47.5006483,60.7144327 L46.5278453,61.4185521 L45.7257511,61.9919558 L44.9024554,62.5743445 L44.0579581,63.1657181 L43.1922593,63.7660768 L42.305359,64.3754205 L41.3972571,64.9937491 L40.4679537,65.6210628 L39.5174487,66.2573614 L38.5457422,66.9026451 L37.5528342,67.5569137 L36.5387246,68.2201674 L35.5034134,68.892406 L33.9106938,69.9176108 L32.8223788,70.6123119 L31.7469598,71.2941401 L31.7472858,71.3159981 L31.7301707,71.3049017 L31.7127598,71.3159981 L31.7127598,71.2941401 L30.6376668,70.6123119 L29.0131449,69.5736296 L27.9566322,68.892406 L26.9213211,68.2201674 L25.9072115,67.5569137 L24.9143034,66.9026451 L23.9425969,66.2573614 L22.992092,65.6210628 L22.0627885,64.9937491 L21.1546866,64.3754205 L20.2677863,63.7660768 L19.4020875,63.1657181 L18.5575903,62.5743445 L17.7342945,61.9919558 L16.9322004,61.4185521 L16.1513077,60.8541334 L15.768812,60.5752935 L15.0197217,60.0243523 L13.9358391,59.2147874 L13.0690438,58.5555929 L12.2353759,57.9104375 C12.1264286,57.8253527 12.0183648,57.7406423 11.9111844,57.6563063 L11.2787025,57.1547825 C11.1750557,57.071944 11.0722923,56.9894799 10.9704122,56.9073901 L10.3697327,56.4193439 L10.0773435,56.1786901 L9.50846631,55.7041214 L9.23197829,55.4702064 L8.6949034,55.0091152 C8.43166634,54.7808158 8.17637986,54.5558858 7.92904396,54.3343252 L7.44497293,53.8956965 C7.28714951,53.7509844 7.13285968,53.6077698 6.98210344,53.4660527 L6.5404355,53.045394 L6.11996909,52.6337202 C3.86570811,50.3942234 2.57346713,48.5624207 2.24324613,47.1383122 C2.2083591,46.9878587 2.17427407,46.8354646 2.14096379,46.6811258 L2.04332993,46.2122706 L1.95018105,45.7317207 L1.86135362,45.2394504 L1.77668413,44.7354338 L1.69600907,44.2196452 L1.61916492,43.6920588 L1.54598815,43.1526487 L1.47631526,42.6013891 L1.40998274,42.0382543 L1.34682705,41.4632185 L1.2866847,40.8762557 L1.22939215,40.2773403 L1.1747859,39.6664465 L1.12270243,39.0435483 L1.04894975,38.0866366 L0.957916413,36.7684985 L0.894403713,35.7480902 L0.795985102,33.9865711 L0.704647073,32.1486545 L0.549926321,28.6465957 L0.264742801,21.7989959 L0.140518182,19.0237795 L0,16.1343703 L1.61653501,15.3280161 L3.1203243,14.5715898 L4.51822953,13.8622199 L5.39473036,13.4140311 L6.63141033,12.7767077 L8.14525763,11.9877346 L8.84887316,11.6173874 L9.84337937,11.0896477 L10.7708843,10.5926931 L12.1864709,9.82504773 L13.4667702,9.12164678 L16.8136138,7.26397422 L17.446659,6.91588097 L18.297976,6.45299291 L18.9508012,6.10303184 L19.6235397,5.7474846 L20.3230531,5.38347976 L21.0562031,5.00814589 L21.8298514,4.6186116 L22.6508597,4.21200546 L23.2278982,3.93003236 L24.1430879,3.48859222 L25.1239355,3.02242313 L26.1773024,2.52865366 L26.9232241,2.1827225 L28.1127049,1.63657149 L29.393003,1.055163 L30.77098,0.435625623 L31.7127598,0.0151641784 L31.7127598,0 L31.7301707,0.00782667271 L31.7472858,0 Z" id="path-1"></path>
        <filter x="-39.1%" y="-25.3%" width="182.5%" height="157.2%" filterUnits="objectBoundingBox" id="filter-2">
            <feMorphology radius="1" operator="dilate" in="SourceAlpha" result="shadowSpreadOuter1"></feMorphology>
            <feOffset dx="0" dy="2" in="shadowSpreadOuter1" result="shadowOffsetOuter1"></feOffset>
            <feGaussianBlur stdDeviation="5" in="shadowOffsetOuter1" result="shadowBlurOuter1"></feGaussianBlur>
            <feColorMatrix values="0 0 0 0 0   0 0 0 0 0   0 0 0 0 0  0 0 0 0.901165729 0" type="matrix" in="shadowBlurOuter1"></feColorMatrix>
        </filter>
        <path d="M43.538853,57.8855509 L48.77,59.778 L48.440324,60.0243523 L47.5006483,60.7144327 L46.5278453,61.4185521 L45.7257511,61.9919558 L44.9024554,62.5743445 L44.0579581,63.1657181 L43.1922593,63.7660768 L42.305359,64.3754205 L41.3972571,64.9937491 L40.4679537,65.6210628 L39.5174487,66.2573614 L38.5457422,66.9026451 L37.5528342,67.5569137 L36.5387246,68.2201674 L35.5034134,68.892406 L33.9106938,69.9176108 L32.8223788,70.6123119 L31.7469598,71.2941401 L31.7472858,71.3159981 L31.7301707,71.3049017 L31.7127598,71.3159981 L31.7127598,71.2941401 L31.3947915,71.093 L31.3947915,65.522 L31.7151874,65.7256515 L31.7151874,65.7444357 L31.7301499,65.7348998 L31.7448582,65.7444357 L31.7445781,65.7256515 L32.6687663,65.1397054 L33.604037,64.5426967 L34.9727804,63.6616613 L35.8625009,63.0839562 L36.7340013,62.5139726 L37.5872817,61.9517105 L38.422342,61.3971699 L39.2391822,60.8503507 L40.0378023,60.311253 L40.8182024,59.7798768 L41.5803823,59.2562221 L42.3243422,58.7402889 L43.0500821,58.2320771 L43.538853,57.8855509 Z M31.7472858,0 L31.7469598,0.0151641784 L32.6890657,0.435625623 L34.0670426,1.055163 L35.3473407,1.63657149 L36.5368216,2.1827225 L37.2827432,2.52865366 L38.3361102,3.02242313 L39.3169577,3.48859222 L40.2321475,3.93003236 L40.8091859,4.21200546 L41.6301942,4.6186116 L42.4038425,5.00814589 L43.1369926,5.38347976 L43.836506,5.7474846 L44.5092445,6.10303184 L45.1620696,6.45299291 L46.0133867,6.91588097 L46.6464318,7.26397422 L48.018,8.024 L46.164853,8.72555093 L45.9145901,8.72608803 L45.913853,8.82055093 L43.071853,9.89455093 L42.7121664,9.70204287 L42.1340318,9.39649446 L41.5328875,9.08367779 L40.9028367,8.76112526 L40.2379826,8.42636922 L39.5324286,8.07694207 L39.0365362,7.83462144 L38.250045,7.45525882 L37.4071292,7.05464475 L36.5018919,6.63031162 L35.8608655,6.33302702 L34.8386554,5.8636785 L33.7383992,5.36403058 L32.5542003,4.83161565 L31.7445781,4.47028159 L31.7448582,4.45724988 L31.7301499,4.46397593 L31.7151874,4.45724988 L31.7151874,4.47028159 L31.3947915,4.613 L31.3947915,0.157 L31.7127598,0.0151641784 L31.7127598,0 L31.7301707,0.00782667271 L31.7472858,0 Z" id="path-3"></path>
        <filter x="-109.9%" y="-25.3%" width="331.9%" height="156.9%" filterUnits="objectBoundingBox" id="filter-4">
            <feMorphology radius="1" operator="dilate" in="SourceAlpha" result="shadowSpreadOuter1"></feMorphology>
            <feOffset dx="0" dy="2" in="shadowSpreadOuter1" result="shadowOffsetOuter1"></feOffset>
            <feGaussianBlur stdDeviation="5" in="shadowOffsetOuter1" result="shadowBlurOuter1"></feGaussianBlur>
            <feColorMatrix values="0 0 0 0 0   0 0 0 0 0   0 0 0 0 0  0 0 0 0.901165729 0" type="matrix" in="shadowBlurOuter1"></feColorMatrix>
        </filter>
    </defs>
    <g id="Page-1" stroke="none" stroke-width="1" fill="none" fill-rule="evenodd">
        <g id="Desktop-HD" transform="translate(-42.000000, -23.000000)">
            <g id="Group" transform="translate(53.000000, 35.000000)">
                <g id="info" transform="translate(0.000000, 81.471805)">
                    <text id="IRON-CLAD" font-family="Helvetica-Bold, Helvetica" font-size="11" font-weight="bold" letter-spacing="0.0190468113">
                        <tspan x="1.69514908" y="10" fill="#FFFFFF">IRON</tspan>
                        <tspan x="29.2713363" y="10" fill="#727272"> </tspan>
                        <tspan x="32.3465355" y="10" fill="#969696">CLAD</tspan>
                    </text>
                    <text id="INC." font-family="Helvetica-Bold, Helvetica" font-size="6" font-weight="bold" letter-spacing="0.0103891698" fill="#FFFFFF">
                        <tspan x="48.789916" y="33.5630364">INC.</tspan>
                    </text>
                    <text id="SECURITY" font-family="Helvetica-Bold, Helvetica" font-size="8" font-weight="bold" letter-spacing="0.0138522264" fill="#A0A0A0">
                        <tspan x="4.57142857" y="33.9474993">SECURITY</tspan>
                    </text>
                    <g id="LOGO-LINE" transform="translate(0.000000, 18.205413)" fill="#D4D4D4">
                        <rect id="Rectangle" x="0" y="0" width="55.6065574" height="1.52689849"></rect>
                        <rect id="Rectangle-Copy-9" x="56.6557377" y="0" width="1.04918033" height="1.52689849"></rect>
                        <rect id="Rectangle-Copy-10" x="58.7540984" y="0" width="3.14754098" height="1.52689849"></rect>
                        <rect id="Rectangle-Copy-11" x="62.9508197" y="0" width="1.04918033" height="1.52689849"></rect>
                    </g>
                </g>
                <g id="shield" transform="translate(1.106425, 0.000000)">
                    <g id="Combined-Shape">
                        <use fill="black" fill-opacity="1" filter="url(#filter-2)" xlink:href="#path-1"></use>
                        <use fill="#D8D8D8" fill-rule="evenodd" xlink:href="#path-1"></use>
                    </g>
                    <g id="Combined-Shape">
                        <use fill="black" fill-opacity="1" filter="url(#filter-4)" xlink:href="#path-3"></use>
                        <use fill="#4F4F4F" fill-rule="evenodd" xlink:href="#path-3"></use>
                    </g>
                </g>
            </g>
        </g>
    </g>
</svg>